<svg xmlns="http://www.w3.org/2000/svg" width="186" height="186" viewBox="0 0 186 186">
  <g id="Group_1039" data-name="Group 1039" transform="translate(-966 -299)">
    <circle id="Ellipse_45" data-name="Ellipse 45" cx="93" cy="93" r="93" transform="translate(966 299)" fill="#bd2b32"/>
    <path id="Icon_metro-cross" data-name="Icon metro-cross" d="M97.9,79.218h0L68.713,50.031,97.9,20.845h0a3.013,3.013,0,0,0,0-4.251L84.111,2.806a3.014,3.014,0,0,0-4.251,0h0L50.674,31.992,21.488,2.806h0a3.014,3.014,0,0,0-4.251,0L3.449,16.593a3.013,3.013,0,0,0,0,4.251h0L32.635,50.031,3.449,79.217h0a3.013,3.013,0,0,0,0,4.251L17.236,97.255a3.014,3.014,0,0,0,4.251,0h0L50.674,68.07,79.859,97.255h0a3.013,3.013,0,0,0,4.251,0L97.9,83.468a3.013,3.013,0,0,0,0-4.251Z" transform="translate(1008.326 341.97)" fill="#fff"/>
  </g>
</svg>
