<svg id="chart" xmlns="http://www.w3.org/2000/svg" width="111.091" height="131.636" viewBox="0 0 111.091 131.636">
  <path id="Path_141" data-name="Path 141" d="M120.5,160h15.624v50.777H120.5Zm0,0" transform="translate(-87.954 -124.521)" fill="none"/>
  <path id="Path_142" data-name="Path 142" d="M232.5,128h15.624v50.777H232.5Zm0,0" transform="translate(-169.578 -99.617)" fill="none"/>
  <path id="Path_143" data-name="Path 143" d="M344.5,224h15.624v50.777H344.5Zm0,0" transform="translate(-250.985 -175.404)" fill="none"/>
  <path id="Path_144" data-name="Path 144" d="M8.5,56H24.124v50.777H8.5Zm0,0" transform="translate(-6.547 -42.329)" fill="none"/>
  <path id="Path_145" data-name="Path 145" d="M122.265,104a1.953,1.953,0,0,0-1.953,1.953v9.765h-5.859a1.953,1.953,0,0,0-1.953,1.953v50.777a1.953,1.953,0,0,0,1.953,1.953h5.859v7.812a1.953,1.953,0,0,0,3.906,0V170.4h5.859a1.953,1.953,0,0,0,1.953-1.953V117.671a1.953,1.953,0,0,0-1.953-1.953h-5.859v-9.765A1.953,1.953,0,0,0,122.265,104Zm5.859,15.624V166.5H116.406V119.624Zm0,0" transform="translate(-81.979 -70.241)" fill="#fff"/>
  <path id="Path_146" data-name="Path 146" d="M234.265,72a1.953,1.953,0,0,0-1.953,1.953v9.765h-5.859a1.953,1.953,0,0,0-1.953,1.953v50.777a1.953,1.953,0,0,0,1.953,1.953h5.859v7.812a1.953,1.953,0,1,0,3.906,0V138.4h5.859a1.953,1.953,0,0,0,1.953-1.953V85.671a1.953,1.953,0,0,0-1.953-1.953h-5.859V73.953A1.953,1.953,0,0,0,234.265,72Zm5.859,15.624V134.5H228.406V87.624Zm0,0" transform="translate(-163.459 -54.423)" fill="#fff"/>
  <path id="Path_147" data-name="Path 147" d="M346.265,168a1.953,1.953,0,0,0-1.953,1.953v9.765h-5.859a1.953,1.953,0,0,0-1.953,1.953v50.777a1.953,1.953,0,0,0,1.953,1.953h5.859v7.812a1.953,1.953,0,1,0,3.906,0V234.4h5.859a1.953,1.953,0,0,0,1.953-1.953V181.671a1.953,1.953,0,0,0-1.953-1.953h-5.859v-9.765A1.953,1.953,0,0,0,346.265,168Zm5.859,15.624V230.5H340.406V183.624Zm0,0" transform="translate(-244.938 -112.53)" fill="#fff"/>
  <path id="Path_148" data-name="Path 148" d="M10.265,0A1.953,1.953,0,0,0,8.312,1.953v9.765H2.453A1.953,1.953,0,0,0,.5,13.671V64.448A1.953,1.953,0,0,0,2.453,66.4H8.312v7.812a1.953,1.953,0,1,0,3.906,0V66.4h5.859a1.953,1.953,0,0,0,1.953-1.953V13.671a1.953,1.953,0,0,0-1.953-1.953H12.218V1.953A1.953,1.953,0,0,0,10.265,0Zm5.859,15.624V62.5H4.406V15.624Zm0,0" transform="translate(-0.5)" fill="#fff"/>
</svg>
