<svg xmlns="http://www.w3.org/2000/svg" width="185.974" height="185.974" viewBox="0 0 185.974 185.974">
  <g id="Group_1036" data-name="Group 1036" transform="translate(-1657.44 -605.159)">
    <circle id="Ellipse_11" data-name="Ellipse 11" cx="69.573" cy="69.573" r="69.573" transform="translate(1680.854 628.572)" fill="#fff"/>
    <path id="Path_222" data-name="Path 222" d="M706.184,502.6A92.987,92.987,0,1,1,613.2,409.61a93.02,93.02,0,0,1,92.987,92.99ZM602.451,551.82l68.977-68.977a5.993,5.993,0,0,0,0-8.487l-8.487-8.425a5.981,5.981,0,0,0-8.475,0L598.208,522.19,571.94,495.86a6.018,6.018,0,0,0-8.487,0l-8.487,8.537a6.018,6.018,0,0,0,0,8.487l39,38.986a5.993,5.993,0,0,0,8.487,0Z" transform="translate(1137.23 195.549)" fill="#64d96a"/>
  </g>
</svg>
